<svg width="20" height="19" viewBox="0 0 20 19" fill="none" xmlns="http://www.w3.org/2000/svg">
<path d="M14.6687 11.3428C14.4678 11.2484 13.1617 10.6825 12.9607 10.5882C12.7598 10.4938 12.5588 10.4938 12.3579 10.6825C12.157 10.8711 11.7551 11.4371 11.5541 11.6257C11.4537 11.8144 11.2527 11.8144 11.0518 11.7201C10.3485 11.4371 9.64519 11.0598 9.04237 10.5882C8.54002 10.1165 8.03766 9.55056 7.63578 8.9846C7.53531 8.79595 7.63578 8.6073 7.73625 8.51297C7.83672 8.41864 7.93719 8.22999 8.13813 8.13566C8.2386 8.04134 8.33907 7.85268 8.33907 7.75836C8.43954 7.66403 8.43954 7.47538 8.33907 7.38105C8.2386 7.28673 7.73625 6.15481 7.53531 5.68317C7.43484 5.02289 7.2339 5.02289 7.03295 5.02289H6.5306C6.32966 5.02289 6.02825 5.21154 5.92778 5.30587C5.32495 5.87183 5.02354 6.53211 5.02354 7.28673C5.12401 8.13566 5.42542 8.9846 6.02825 9.73921C7.13342 11.2484 8.54002 12.4747 10.248 13.2293C10.7504 13.4179 11.1523 13.6066 11.6546 13.7009C12.157 13.8896 12.6593 13.8896 13.2621 13.7953C13.9654 13.7009 14.5683 13.2293 14.9701 12.6633C15.1711 12.286 15.1711 11.9087 15.0706 11.5314L14.6687 11.3428ZM17.1805 2.75905C13.2621 -0.919684 6.93248 -0.919684 3.01412 2.75905C-0.200942 5.7775 -0.803766 10.3995 1.40659 14.0782L0 18.8889L5.32495 17.5683C6.83201 18.3229 8.43954 18.7002 10.0471 18.7002C15.573 18.7002 19.9937 14.5499 19.9937 9.36191C20.0942 6.90942 18.989 4.55126 17.1805 2.75905ZM14.4678 15.9648C13.1617 16.7194 11.6546 17.191 10.0471 17.191C8.54002 17.191 7.13342 16.8137 5.8273 16.1534L5.52589 15.9648L2.4113 16.7194L3.21506 13.8896L3.01412 13.6066C0.602825 9.83354 1.80847 5.11721 5.72683 2.75905C9.64519 0.400888 14.6687 1.62713 17.08 5.21154C19.4913 8.89028 18.3862 13.7009 14.4678 15.9648Z" fill="black"/>
</svg>
